# xmcd
#
# Track frame offsets:
#	150
#	22995
#	55722
#	74974
#	93491
#	124679
#	146760
#	180752
#	198826
#	217689
#	246299
#	275989
#	298961
#	329589
#	344076
#
# Disc length: 4794 seconds
#
# Revision: 0
# Processed by: cddbd v1.4PL0 Copyright (c) Steve Scherf et al.
# Submitted via: dBpowerAMP V4.0
#
DISCID=f512b80f
DTITLE=Garry moore - ballads and blues 1982 - 2001
DYEAR=1900
DGENRE=
TTITLE0=surrender 
TTITLE1=picture of the moon
TTITLE2=empty rooms
TTITLE3=falling in love with you 
TTITLE4=stormy monday
TTITLE5=i have found my love in you
TTITLE6=like angels
TTITLE7=one day
TTITLE8=still got the blues
TTITLE9=the prophet
TTITLE10=where we did go wrong 
TTITLE11=drowning in tears
TTITLE12=parisienne walkaways
TTITLE13=johnny boy
TTITLE14=dark days in paradise
EXTD=
EXTT0=
EXTT1=
EXTT2=
EXTT3=
EXTT4=
EXTT5=
EXTT6=
EXTT7=
EXTT8=
EXTT9=
EXTT10=
EXTT11=
EXTT12=
EXTT13=
EXTT14=
PLAYORDER=
